<?xml version="1.0" encoding="utf-8"?>
<!-- Generator: Adobe Illustrator 17.0.0, SVG Export Plug-In . SVG Version: 6.00 Build 0)  -->
<!DOCTYPE svg PUBLIC "-//W3C//DTD SVG 1.1//EN" "http://www.w3.org/Graphics/SVG/1.1/DTD/svg11.dtd">
<svg version="1.1" id="Layer_1" xmlns="http://www.w3.org/2000/svg" xmlns:xlink="http://www.w3.org/1999/xlink" x="0px" y="0px"
	 width="353px" height="191px" viewBox="0 0 353 191" enable-background="new 0 0 353 191" xml:space="preserve">
<path fill="#A1A1A1" d="M119.842,61.671l-3.242-1.266c-1.187-0.46-2.636,0.082-3.224,1.21l-13.191,25.274
	c1.276-0.424,2.641-0.661,4.068-0.661c5.282,0,9.73,3.155,11.736,7.635l5.571-29.09C121.8,63.525,121.024,62.132,119.842,61.671
	 M91.885,102.795l-15.301,29.322c-0.589,1.124-0.181,2.587,0.9,3.253l25.365,15.583c1.082,0.663,2.164,0.189,2.4-1.058l7.933-41.396
	c-2.312,2.257-5.454,3.664-8.93,3.664C98.379,112.163,93.444,108.158,91.885,102.795"/>
<path fill="#DFDFDF" d="M128.926,114.596l-12.022-13.025c-0.851,4.543-4.085,8.297-8.368,9.835l15.373,12.09
	c0.997,0.783,2.316,0.519,2.931-0.592l2.533-4.59C129.989,117.202,129.787,115.53,128.926,114.596 M65.116,48.847L51.017,63.248
	c-0.887,0.908-0.798,2.291,0.199,3.077l40.21,31.622c0.573-6.062,5.286-10.966,11.396-11.637L68.297,48.895
	C67.437,47.96,66.003,47.939,65.116,48.847"/>
<path fill="#A1A1A1" d="M170.551,84.486l-2.39-4.478c-0.596-1.119-2.105-1.833-3.354-1.589l-52.825,10.407
	c3.139,2.377,5.151,6.148,5.151,10.366c0,2.257-0.591,4.391-1.62,6.254l53.936-18.187C170.652,86.852,171.15,85.605,170.551,84.486
	 M91.363,99.192c0-2.429,0.677-4.709,1.841-6.664l-65.716,12.95c-1.247,0.246-1.878,1.41-1.404,2.585l8.924,22.103
	c0.474,1.175,1.849,1.807,3.054,1.399l60.934-20.55C94.494,108.971,91.363,104.407,91.363,99.192"/>
<path fill="#8E8E8E" stroke="#8E8E8E" stroke-miterlimit="10" d="M104.252,92.479c3.733,0,6.67,3.038,6.67,6.715
	c0,3.666-2.98,6.72-6.67,6.72c-3.694,0-6.676-3.054-6.676-6.72C97.576,95.516,100.512,92.479,104.252,92.479"/>
<path fill="#636363" d="M19.497,97.505h2.886c1.529,0,3.054-0.526,3.054-2.35c0-2.021-2.054-2.298-3.717-2.298h-2.222V97.505z
	 M15.169,89.203h7.298c4.08,0,7.464,1.301,7.464,5.951c0,4.59-3.137,6.001-7.272,6.001h-3.163v7.636h-4.327V89.203z"/>
<rect x="46.747" y="89.205" fill="#636363" width="4.33" height="19.588"/>
<polygon fill="#636363" points="64.638,89.203 69.576,89.203 74.435,102.043 74.491,102.043 79.428,89.203 84.061,89.203 
	75.958,108.792 72.492,108.792 "/>
<polygon fill="#636363" points="133.175,93.021 127.571,93.021 127.571,89.205 143.114,89.205 143.114,93.021 137.505,93.021 
	137.505,108.793 133.175,108.793 "/>
<path fill="#636363" d="M161.801,94.904l-2.385,6.087h4.799L161.801,94.904z M160.135,89.203h3.583l8.543,19.588h-4.884
	l-1.689-4.152h-7.635l-1.633,4.152h-4.775L160.135,89.203z"/>
<polygon fill="#636363" points="183.853,89.203 188.183,89.203 188.183,104.812 196.202,104.812 196.202,108.792 183.853,108.792 
	"/>
<polygon fill="#636363" points="214.467,89.227 216.79,89.227 216.79,106.619 225.763,106.619 225.763,108.769 214.467,108.769 "/>
<path fill="#636363" d="M245.417,92.21h-0.056l-4.072,9.603h8.002L245.417,92.21z M244.365,89.227h2.182l8.337,19.543h-2.715
	l-1.991-4.8h-9.805l-2.018,4.8h-2.629L244.365,89.227z"/>
<path fill="#636363" d="M266.842,106.619h3.933c2.273,0,4.739-0.915,4.739-3.397c0-2.732-2.324-3.557-4.68-3.557h-3.992V106.619z
	 M266.842,97.506h3.216c2.183,0,4.462-0.472,4.462-3.173c0-2.399-2.108-2.954-4.216-2.954h-3.462V97.506z M264.52,89.227h5.981
	c3.238,0,6.508,1.214,6.508,4.801c0,2.265-1.332,3.786-3.435,4.416v0.059c2.52,0.217,4.43,2.235,4.43,4.801
	c0,4.309-4.015,5.466-7.641,5.466h-5.843V89.227z"/>
<path fill="#636363" d="M298.364,92.68c-0.775-1.246-2.161-1.795-3.577-1.795c-2.043,0-4.175,0.961-4.175,3.285
	c0,1.788,0.992,2.591,4.125,3.59c3.043,0.961,5.87,1.956,5.87,5.792c0,3.895-3.347,5.718-6.898,5.718
	c-2.268,0-4.703-0.743-6.036-2.708l1.996-1.63c0.826,1.436,2.494,2.184,4.182,2.184c1.992,0,4.263-1.167,4.263-3.397
	c0-2.406-1.633-2.817-5.121-3.974c-2.772-0.913-4.879-2.131-4.879-5.388c0-3.754,3.246-5.633,6.675-5.633
	c2.191,0,4.043,0.608,5.487,2.291L298.364,92.68z"/>
</svg>
